<?xml version="1.0" encoding="UTF-8"?>
<svg id="Layer_2" data-name="Layer 2" xmlns="http://www.w3.org/2000/svg" xmlns:xlink="http://www.w3.org/1999/xlink" viewBox="0 0 626.76 711.1">
  <defs>
    <style>
      .cls-1 {
        fill: url(#radial-gradient-5);
      }

      .cls-2 {
        fill: url(#radial-gradient-4);
      }

      .cls-3 {
        fill: none;
        stroke: #44c0cb;
        stroke-miterlimit: 10;
        stroke-width: 4px;
      }

      .cls-4 {
        fill: url(#radial-gradient-6);
      }

      .cls-5 {
        fill: url(#radial-gradient);
      }

      .cls-6 {
        fill: #35a0bd;
      }

      .cls-7 {
        fill: url(#radial-gradient-2);
      }

      .cls-8 {
        fill: url(#radial-gradient-3);
      }
    </style>
    <radialGradient id="radial-gradient" cx="293.04" cy="-40.91" fx="293.04" fy="-40.91" r="577.16" gradientUnits="userSpaceOnUse">
      <stop offset="0" stop-color="#aef8f9"/>
      <stop offset=".28" stop-color="#7df3f8"/>
      <stop offset=".52" stop-color="#18e4ee"/>
      <stop offset=".76" stop-color="#0bd6e7"/>
      <stop offset="1" stop-color="#05a4d0"/>
    </radialGradient>
    <radialGradient id="radial-gradient-2" cx="293.04" cy="-40.91" fx="293.04" fy="-40.91" r="577.16" xlink:href="#radial-gradient"/>
    <radialGradient id="radial-gradient-3" cx="293.04" cy="-40.91" fx="293.04" fy="-40.91" r="577.16" xlink:href="#radial-gradient"/>
    <radialGradient id="radial-gradient-4" cx="293.04" cy="-40.91" fx="293.04" fy="-40.91" r="577.16" xlink:href="#radial-gradient"/>
    <radialGradient id="radial-gradient-5" cx="293.04" cy="-40.91" fx="293.04" fy="-40.91" r="577.16" xlink:href="#radial-gradient"/>
    <radialGradient id="radial-gradient-6" cx="293.04" cy="-40.91" fx="293.04" fy="-40.91" r="577.16" xlink:href="#radial-gradient"/>
  </defs>
  <g id="Layer_1-2" data-name="Layer 1">
    <g>
      <g>
        <line class="cls-3" x1="313.32" y1="439.6" x2="216.74" y2="525.75"/>
        <line class="cls-3" x1="414" y1="526.92" x2="321.88" y2="442.23"/>
        <line class="cls-3" x1="511.58" y1="456.53" x2="415.65" y2="357.84"/>
        <line class="cls-3" x1="316.01" y1="269.24" x2="221.21" y2="188.79"/>
        <line class="cls-3" x1="217.56" y1="354.6" x2="115.48" y2="456.53"/>
        <line class="cls-3" x1="413.35" y1="190.55" x2="313.32" y2="271.72"/>
        <line class="cls-3" x1="514.3" y1="251.57" x2="514.3" y2="459.34"/>
        <line class="cls-3" x1="316.31" y1="122.66" x2="316.31" y2="569.67"/>
        <line class="cls-3" x1="217.56" y1="186.69" x2="217.56" y2="528.99"/>
        <line class="cls-3" x1="415.23" y1="173.1" x2="415.23" y2="515.4"/>
        <line class="cls-3" x1="512.33" y1="459.71" x2="316.01" y2="581.11"/>
        <line class="cls-3" x1="314.9" y1="126.04" x2="118.58" y2="247.44"/>
        <line class="cls-3" x1="115.48" y1="248.75" x2="115.48" y2="456.53"/>
        <line class="cls-3" x1="110.62" y1="461.97" x2="316.01" y2="581.11"/>
        <line class="cls-3" x1="312.95" y1="126.46" x2="518.34" y2="245.6"/>
      </g>
      <g>
        <circle class="cls-6" cx="514.3" cy="249.48" r="19.74"/>
        <circle class="cls-6" cx="514.3" cy="459.34" r="19.74"/>
        <circle class="cls-6" cx="115.48" cy="250.87" r="19.74"/>
        <circle class="cls-6" cx="115.48" cy="458.65" r="19.74"/>
        <circle class="cls-6" cx="414.82" cy="355.31" r="19.74"/>
        <circle class="cls-6" cx="414.82" cy="186.74" r="19.74"/>
        <circle class="cls-6" cx="414" cy="521.96" r="19.74"/>
        <circle class="cls-6" cx="217.56" cy="354.6" r="19.74"/>
        <circle class="cls-6" cx="217.56" cy="186.03" r="19.74"/>
        <circle class="cls-6" cx="216.74" cy="523.34" r="19.74"/>
        <circle class="cls-6" cx="316.01" cy="125.8" r="19.74"/>
        <circle class="cls-6" cx="316.01" cy="442.23" r="19.74"/>
        <circle class="cls-6" cx="316.01" cy="269.24" r="19.74"/>
        <circle class="cls-6" cx="316.01" cy="579.46" r="19.74"/>
      </g>
      <g>
        <polygon class="cls-5" points="313.32 .03 313.32 83.35 312.62 83.78 71.97 228.02 2.4 185.87 4.47 184.65 313.32 .03"/>
        <polygon class="cls-7" points="625.06 185.85 555.11 228.02 554.35 227.58 316.77 83.35 316.77 0 625.06 185.85"/>
        <polygon class="cls-8" points="626.76 188.77 625.18 526.92 557.42 484.69 557.42 230.41 626.76 188.77"/>
        <polygon class="cls-2" points="623.28 530.05 621.2 531.28 316.48 711.1 316.48 630 555.46 487.5 623.28 530.05"/>
        <polygon class="cls-1" points="313.32 630 313.32 710.89 311.13 709.61 3.01 528.76 73.55 487.5 74.28 487.94 313.32 630"/>
        <polygon class="cls-4" points="71.88 485.66 1.87 525.75 0 189.76 68.72 230.18 71.88 485.66"/>
      </g>
    </g>
  </g>
</svg>